<?xml version="1.0" encoding="iso-8859-1"?>
<!-- Generator: Adobe Illustrator 19.0.0, SVG Export Plug-In . SVG Version: 6.00 Build 0)  -->
<svg version="1.1" id="Capa_1" xmlns="http://www.w3.org/2000/svg" xmlns:xlink="http://www.w3.org/1999/xlink" x="0px" y="0px"
	 viewBox="0 0 512 512" style="enable-background:new 0 0 512 512;" xml:space="preserve">
<g>
	<g>
		<path d="M412.614,210.963h-28.927v-15.002c0-8.285-6.717-15.002-15.002-15.002H68.647c-8.285,0-15.002,6.717-15.002,15.002v95.159
			c0,24.231,3.978,48.846,11.501,71.184c7.938,23.565,22.331,44.026,41.853,59.686H38.642c-8.285-0.001-15.002,6.716-15.002,15.001
			c0,41.36,33.649,75.01,75.01,75.01h240.03c41.36,0,75.01-33.649,75.01-75.01c0-8.285-6.717-15.002-15.002-15.002h-68.357
			c10.812-8.674,20.042-18.824,27.478-30.158c54.862-2.021,96.761-26.267,121.458-70.463
			C506.435,272.746,469.35,210.963,412.614,210.963z M381.116,451.992c-6.191,17.463-22.876,30.004-42.435,30.004H98.65
			c-19.558,0-36.244-12.541-42.435-30.004C88.744,451.992,365.112,451.992,381.116,451.992z M353.682,291.119
			c0,21.013-3.434,42.316-9.932,61.606c-13.954,41.425-53.718,69.258-98.952,69.264h-52.268
			c-45.234-0.005-84.998-27.839-98.951-69.264c-6.498-19.289-9.932-40.592-9.932-61.606v-80.157h270.034V291.119z M453.075,306.731
			c-17.111,30.622-44.068,48.625-80.292,53.728c7.13-21.847,10.903-45.773,10.903-69.34v-50.153h28.927
			C446.437,240.965,469.065,278.118,453.075,306.731z"/>
	</g>
</g>
<g>
	<g>
		<path d="M152.726,89.493c14.238-9.492,22.738-25.561,22.737-42.986c0-17.425-8.5-34.494-22.738-43.986
			c-6.892-4.596-16.207-2.733-20.804,4.161c-4.596,6.894-2.732,16.208,4.161,20.804c5.959,3.973,9.376,11.542,9.376,19.021
			c0.002,7.481-3.415,14.049-9.375,18.022c-14.238,9.492-22.738,25.374-22.738,42.486c0,17.111,8.5,32.994,22.738,42.485
			c6.863,4.577,16.187,2.763,20.804-4.161c4.596-6.894,2.732-16.208-4.162-20.804c-5.959-3.973-9.377-10.359-9.377-17.521
			C143.349,99.852,146.766,93.467,152.726,89.493z"/>
	</g>
</g>
<g>
	<g>
		<path d="M227.735,89.493c14.238-9.492,22.738-25.561,22.737-42.986c0-17.425-8.5-34.494-22.738-43.986
			c-6.892-4.596-16.207-2.733-20.804,4.161c-4.596,6.894-2.732,16.208,4.161,20.804c5.959,3.973,9.376,11.542,9.376,19.021
			c0.002,7.481-3.415,14.049-9.375,18.022c-14.238,9.492-22.738,25.374-22.738,42.486c0,17.111,8.5,32.994,22.738,42.485
			c6.863,4.577,16.187,2.763,20.804-4.161c4.596-6.894,2.732-16.208-4.162-20.804c-5.959-3.973-9.377-10.359-9.377-17.521
			C218.358,99.852,221.776,93.467,227.735,89.493z"/>
	</g>
</g>
<g>
	<g>
		<path d="M302.746,89.493c14.238-9.492,22.738-25.561,22.738-42.986s-8.5-34.494-22.738-43.986
			c-6.894-4.596-16.208-2.733-20.804,4.161c-4.597,6.894-2.733,16.208,4.161,20.804c5.959,3.973,9.377,11.542,9.377,19.021
			c0,7.481-3.418,14.049-9.377,18.022c-14.238,9.492-22.738,25.374-22.738,42.486c0,17.111,8.5,32.994,22.738,42.485
			c6.882,4.588,16.2,2.745,20.804-4.161c4.597-6.894,2.733-16.208-4.161-20.804c-5.959-3.973-9.377-10.359-9.377-17.521
			C293.369,99.852,296.787,93.467,302.746,89.493z"/>
	</g>
</g>
<g>
</g>
<g>
</g>
<g>
</g>
<g>
</g>
<g>
</g>
<g>
</g>
<g>
</g>
<g>
</g>
<g>
</g>
<g>
</g>
<g>
</g>
<g>
</g>
<g>
</g>
<g>
</g>
<g>
</g>
</svg>
