<?xml version="1.0"?>
<svg xmlns="http://www.w3.org/2000/svg" xmlns:xlink="http://www.w3.org/1999/xlink" xmlns:svgjs="http://svgjs.com/svgjs" version="1.1" width="512" height="512" x="0" y="0" viewBox="0 0 512 512" style="enable-background:new 0 0 512 512" xml:space="preserve" class=""><g><path xmlns="http://www.w3.org/2000/svg" d="m453 100h-386.11a23.706 23.706 0 0 0 -23.89 23.89v275.11h137.5a12.052 12.052 0 0 1 12.11 12 12.022 12.022 0 0 0 12.06 12h96.9a12.037 12.037 0 0 0 12.1-12 12.037 12.037 0 0 1 12.07-12h148.26v-267z" fill="#b3d1e7" data-original="#b3d1e7" style="" class=""/><path xmlns="http://www.w3.org/2000/svg" d="m74 123.89a23.706 23.706 0 0 1 23.89-23.89h-31a23.706 23.706 0 0 0 -23.89 23.89v275.11h31z" fill="#97b3c4" data-original="#97b3c4" style="" class=""/><path xmlns="http://www.w3.org/2000/svg" d="m433.861 142h-252.861v215.36l2 .64h246.25a5.049 5.049 0 0 0 4.75-4.73v-211.72z" fill="#80aaff" data-original="#80aaff" style="" class=""/><path xmlns="http://www.w3.org/2000/svg" d="m474.21 395h-148.47a12.037 12.037 0 0 0 -12.07 12 12.037 12.037 0 0 1 -12.1 12h-96.9a12.022 12.022 0 0 1 -12.06-12 11.963 11.963 0 0 0 -12.005-12h-142.885a26.5 26.5 0 1 0 .07 53h436.45a26.5 26.5 0 1 0 -.03-53z" fill="#93b0c1" data-original="#93b0c1" style=""/><path xmlns="http://www.w3.org/2000/svg" d="m182.88 357.36v.25h-95.68a4.334 4.334 0 0 1 -4.36-4.34v-181.27h100.04z" fill="#e87187" data-original="#e87187" style="" class=""/><path xmlns="http://www.w3.org/2000/svg" d="m182.88 141.81v30.19h-100.04v-26.11a4.347 4.347 0 0 1 4.36-4.34h95.68z" fill="#c16378" data-original="#c16378" style="" class=""/><path xmlns="http://www.w3.org/2000/svg" d="m478.73 64h-107.35c-8.35 0-15.38 6.5-15.38 14.85v67.3c0 8.35 7.03 14.85 15.38 14.85h13.04c26.64 0 16.85 39.48 16.85 39.48s25.31-6.765 24.04-36.685a2.54 2.54 0 0 1 2.3-2.688c.04 0 .08-.107.13-.107h50.99a15 15 0 0 0 15.27-14.82v-67.33a15.022 15.022 0 0 0 -15.27-14.85z" fill="#53d8d8" data-original="#53d8d8" style=""/><path xmlns="http://www.w3.org/2000/svg" d="m379.35 222h-.01a79.933 79.933 0 0 0 -74.33-51.4c-2.57 0-5.12.062-7.63.3a79.6 79.6 0 0 0 -71.99 79.24c0 1.08.02 2.146.07 3.226a79.614 79.614 0 0 0 159.15-1.823c.02-.48.02-.716.02-1.2 0-10.067-1.87-20.343-5.28-28.343z" fill="#69778c" data-original="#69778c" style="" class=""/><path xmlns="http://www.w3.org/2000/svg" d="m340.04 292.71a7.96 7.96 0 1 1 -7.96 7.96 7.964 7.964 0 0 1 7.96-7.96z" fill="#4e5866" data-original="#4e5866" style=""/><path xmlns="http://www.w3.org/2000/svg" d="m310.98 236.97a11.545 11.545 0 1 1 -11.54 11.54 11.546 11.546 0 0 1 11.54-11.54z" fill="#4e5866" data-original="#4e5866" style=""/><path xmlns="http://www.w3.org/2000/svg" d="m384.63 250.11c0 .48 0 .95-.02 1.43a17.916 17.916 0 1 1 -5.27-30.01h.01a79.5 79.5 0 0 1 5.28 28.58z" fill="#4e5866" data-original="#4e5866" style=""/><path xmlns="http://www.w3.org/2000/svg" d="m331.28 174.92a17.118 17.118 0 0 1 -34.23-.46 17.859 17.859 0 0 1 .34-3.45l-.01-.17c2.51-.24 5.06-.36 7.63-.36a79.294 79.294 0 0 1 26.27 4.44z" fill="#4e5866" data-original="#4e5866" style=""/><path xmlns="http://www.w3.org/2000/svg" d="m280.72 287.67a10.21 10.21 0 1 1 -10.2 10.21 10.208 10.208 0 0 1 10.2-10.21z" fill="#4e5866" data-original="#4e5866" style=""/><path xmlns="http://www.w3.org/2000/svg" d="m235.74 250.11a17.915 17.915 0 0 1 0 35.83 15.785 15.785 0 0 1 -1.83-.1l-.05.03a78.875 78.875 0 0 1 -8.4-32.52 17.838 17.838 0 0 1 10.28-3.24z" fill="#4e5866" data-original="#4e5866" style=""/><path xmlns="http://www.w3.org/2000/svg" d="m271.97 204.32a7.965 7.965 0 1 1 -7.97 7.97 7.97 7.97 0 0 1 7.97-7.97z" fill="#4e5866" data-original="#4e5866" style=""/><path xmlns="http://www.w3.org/2000/svg" d="m344.67 407a12.037 12.037 0 0 1 12.07-12h-31a12.037 12.037 0 0 0 -12.07 12 12.037 12.037 0 0 1 -12.1 12h31a12.037 12.037 0 0 0 12.1-12z" fill="#93b0c1" data-original="#93b0c1" style=""/><path xmlns="http://www.w3.org/2000/svg" d="m42 421.5a26.567 26.567 0 0 1 26.72-26.5h-31a26.5 26.5 0 1 0 .07 53h31a26.6 26.6 0 0 1 -26.79-26.5z" fill="#708691" data-original="#708691" style=""/><path xmlns="http://www.w3.org/2000/svg" d="m425.321 163.534a18.29 18.29 0 0 0 -9.9-2.534h-13.041c-8.35 0-15.38-6.5-15.38-14.85v-67.3c0-8.35 7.03-14.85 15.38-14.85h-31c-8.35 0-15.38 6.5-15.38 14.85v67.3c0 8.35 7.03 14.85 15.38 14.85h13.04c26.64 0 16.85 39.48 16.85 39.48s25.31-6.765 24.04-36.685a2.52 2.52 0 0 1 .011-.261z" fill="#46aaa7" data-original="#46aaa7" style=""/><path xmlns="http://www.w3.org/2000/svg" d="m471.549 100.877h-33.266a6 6 0 0 1 0-12h33.266a6 6 0 0 1 0 12z" fill="#3b8985" data-original="#3b8985" style=""/><path xmlns="http://www.w3.org/2000/svg" d="m420.138 100.877h-41.582a6 6 0 0 1 0-12h41.582a6 6 0 0 1 0 12z" fill="#3b8985" data-original="#3b8985" style=""/><path xmlns="http://www.w3.org/2000/svg" d="m471.549 119.772h-66.531a6 6 0 0 1 0-12h66.531a6 6 0 0 1 0 12z" fill="#3b8985" data-original="#3b8985" style=""/><path xmlns="http://www.w3.org/2000/svg" d="m386.873 119.772h-8.317a6 6 0 0 1 0-12h8.317a6 6 0 0 1 0 12z" fill="#3b8985" data-original="#3b8985" style=""/><path xmlns="http://www.w3.org/2000/svg" d="m471.549 138.667h-36.29a6 6 0 0 1 0-12h36.29a6 6 0 0 1 0 12z" fill="#3b8985" data-original="#3b8985" style=""/><path xmlns="http://www.w3.org/2000/svg" d="m417.114 138.667h-38.558a6 6 0 0 1 0-12h38.558a6 6 0 0 1 0 12z" fill="#3b8985" data-original="#3b8985" style=""/><g xmlns="http://www.w3.org/2000/svg" fill="#f792a8"><path d="m159 200h-57a6 6 0 0 1 0-12h57a6 6 0 0 1 0 12z" fill="#f792a8" data-original="#f792a8" style=""/><path d="m159 220h-57a6 6 0 0 1 0-12h57a6 6 0 0 1 0 12z" fill="#f792a8" data-original="#f792a8" style=""/><path d="m159 241h-57a6 6 0 0 1 0-12h57a6 6 0 0 1 0 12z" fill="#f792a8" data-original="#f792a8" style=""/><path d="m159 261h-57a6 6 0 0 1 0-12h57a6 6 0 0 1 0 12z" fill="#f792a8" data-original="#f792a8" style=""/><path d="m159 281h-57a6 6 0 0 1 0-12h57a6 6 0 0 1 0 12z" fill="#f792a8" data-original="#f792a8" style=""/><path d="m159 302h-57a6 6 0 0 1 0-12h57a6 6 0 0 1 0 12z" fill="#f792a8" data-original="#f792a8" style=""/><path d="m159 322h-57a6 6 0 0 1 0-12h57a6 6 0 0 1 0 12z" fill="#f792a8" data-original="#f792a8" style=""/><path d="m159 343h-57a6 6 0 0 1 0-12h57a6 6 0 0 1 0 12z" fill="#f792a8" data-original="#f792a8" style=""/></g><path xmlns="http://www.w3.org/2000/svg" d="m61 152.759a6 6 0 0 1 -6-6v-3.649a6 6 0 0 1 12 0v3.649a6 6 0 0 1 -6 6z" fill="#f4f8fc" data-original="#f4f8fc" style="" class=""/><path xmlns="http://www.w3.org/2000/svg" d="m61 239.974a6 6 0 0 1 -6-6v-67.844a6 6 0 0 1 12 0v67.844a6 6 0 0 1 -6 6z" fill="#f4f8fc" data-original="#f4f8fc" style="" class=""/></g></svg>
