<?xml version="1.0" encoding="iso-8859-1"?>
<!-- Generator: Adobe Illustrator 19.0.0, SVG Export Plug-In . SVG Version: 6.00 Build 0)  -->
<svg version="1.1" id="Capa_1" xmlns="http://www.w3.org/2000/svg" xmlns:xlink="http://www.w3.org/1999/xlink" x="0px" y="0px"
	 viewBox="0 0 511.999 511.999" style="enable-background:new 0 0 511.999 511.999;" xml:space="preserve">
<path style="fill:#FF9F00;" d="M63.24,260.582l44.316,7.814l-5.209,29.544l-44.316-7.814c-8.158-1.438-15.938,4.008-17.377,12.167
	l-10.419,59.088c-1.438,8.158,4.01,15.938,12.167,17.377l44.316,7.814l-5.209,29.544l-44.316-7.814
	c-24.475-4.316-40.818-27.655-36.502-52.131l10.419-59.088C15.425,272.609,38.764,256.266,63.24,260.582z"/>
<path style="fill:#FDBF00;" d="M260.487,264.899l-36.466,206.81c-2.865,16.249-18.505,27.2-34.754,24.335L71.09,475.206
	c-16.249-2.865-27.2-18.505-24.335-34.754l36.466-206.81L260.487,264.899z"/>
<path style="fill:#FF9F00;" d="M260.487,264.899l-36.466,206.81c-2.865,16.249-18.505,27.2-34.754,24.335l-59.088-10.419
	l41.676-236.354L260.487,264.899z"/>
<path style="fill:#FFE1BA;" d="M292.636,255.336c-4.324,24.52-27.608,40.826-52.131,36.502
	c-13.591-2.396-24.609-10.737-30.868-21.894c-12.355,7.875-27.334,11.631-42.993,8.87c-15.659-2.761-28.45-11.414-37.366-23.04
	c-9.697,8.343-22.903,12.413-36.494,10.016c-24.522-4.324-40.826-27.61-36.502-52.131c4.324-24.522,27.608-40.826,52.131-36.502
	c7.386,1.302,13.816,4.569,19.204,8.564c13.049-18.719,35.935-29.305,59.866-25.085s41.816,21.995,47.676,44.047
	c6.43-1.912,13.589-2.782,20.975-1.48C280.656,207.53,296.959,230.814,292.636,255.336z"/>
<path style="fill:#FFD396;" d="M292.636,255.336c-4.324,24.52-27.608,40.826-52.131,36.502
	c-13.591-2.396-24.609-10.737-30.868-21.894c-12.355,7.875-27.334,11.631-42.993,8.87l20.838-118.177
	c23.931,4.22,41.816,21.995,47.676,44.047c6.43-1.912,13.589-2.782,20.975-1.48C280.656,207.53,296.959,230.814,292.636,255.336z"/>
<path style="fill:#FF7816;" d="M448.758,260.582l-44.316,7.814l5.209,29.544l44.316-7.814c8.158-1.438,15.938,4.008,17.377,12.167
	l10.419,59.088c1.438,8.158-4.01,15.938-12.167,17.377l-44.316,7.814l5.209,29.544l44.316-7.814
	c24.475-4.316,40.818-27.655,36.502-52.131l-10.419-59.088C496.573,272.609,473.234,256.266,448.758,260.582z"/>
<path style="fill:#FDBF00;" d="M428.777,233.642l36.466,206.81c2.865,16.249-8.086,31.889-24.335,34.754l-118.177,20.838
	c-16.249,2.865-31.889-8.086-34.754-24.335l-36.466-206.81L428.777,233.642z"/>
<path style="fill:#FF9F00;" d="M428.777,233.642l36.466,206.81c2.865,16.249-8.086,31.889-24.335,34.754l-59.088,10.419
	l-41.676-236.354L428.777,233.642z"/>
<path style="fill:#FFE1BA;" d="M455.716,213.661c4.324,24.52-11.98,47.807-36.502,52.131c-13.591,2.396-26.797-1.673-36.494-10.016
	c-8.916,11.625-21.707,20.279-37.366,23.04s-30.638-0.996-42.993-8.87c-6.258,11.157-17.277,19.497-30.868,21.894
	c-24.522,4.324-47.807-11.982-52.131-36.502c-4.324-24.522,11.98-47.807,36.502-52.131c7.386-1.302,14.545-0.432,20.975,1.48
	c5.86-22.053,23.745-39.828,47.676-44.047s46.817,6.366,59.866,25.085c5.388-3.996,11.818-7.262,19.204-8.564
	C428.108,172.835,451.392,189.139,455.716,213.661z"/>
<path style="fill:#FFD396;" d="M455.716,213.661c4.324,24.52-11.98,47.807-36.502,52.131c-13.591,2.396-26.797-1.673-36.494-10.016
	c-8.916,11.625-21.707,20.279-37.366,23.04l-20.838-118.177c23.931-4.22,46.817,6.366,59.866,25.085
	c5.388-3.996,11.818-7.262,19.204-8.564C428.108,172.835,451.392,189.139,455.716,213.661z"/>
<path style="fill:#77DD00;" d="M270.999,30.499v30c0,8.399-6.599,15-15,15c-8.401,0-15-6.601-15-15v-30c0-8.401,6.599-15,15-15
	C264.4,15.499,270.999,22.098,270.999,30.499z"/>
<path style="fill:#66BB00;" d="M305.394,101.104c-3.838,0-7.676-1.465-10.605-4.395c-5.859-5.859-5.859-15.352,0-21.211l21.21-21.21
	c5.859-5.859,15.352-5.859,21.211,0s5.859,15.352,0,21.211L315.999,96.71C313.069,99.64,309.231,101.104,305.394,101.104z"/>
<path style="fill:#77DD00;" d="M206.604,101.104c-3.838,0-7.676-1.465-10.605-4.395l-21.211-21.21
	c-5.859-5.859-5.859-15.352,0-21.211s15.352-5.859,21.211,0l21.211,21.211c5.859,5.859,5.859,15.352,0,21.211
	C214.28,99.64,210.442,101.104,206.604,101.104z"/>
<path style="fill:#66BB00;" d="M270.999,30.499v30c0,8.399-6.599,15-15,15v-60C264.4,15.499,270.999,22.098,270.999,30.499z"/>
<g>
</g>
<g>
</g>
<g>
</g>
<g>
</g>
<g>
</g>
<g>
</g>
<g>
</g>
<g>
</g>
<g>
</g>
<g>
</g>
<g>
</g>
<g>
</g>
<g>
</g>
<g>
</g>
<g>
</g>
</svg>
